<svg width="121" height="28" viewBox="0 0 121 28" fill="none" xmlns="http://www.w3.org/2000/svg">
<path d="M18.5 4H6.5C5.39543 4 4.5 4.89543 4.5 6V22C4.5 23.1046 5.39543 24 6.5 24H18.5C19.6046 24 20.5 23.1046 20.5 22V6C20.5 4.89543 19.6046 4 18.5 4Z" stroke="black" stroke-width="2" stroke-linecap="round" stroke-linejoin="round"/>
<path d="M9.5 24V20H15.5V24" stroke="black" stroke-width="2" stroke-linecap="round" stroke-linejoin="round"/>
<path d="M8.5 8H8.51" stroke="black" stroke-width="2" stroke-linecap="round" stroke-linejoin="round"/>
<path d="M16.5 8H16.51" stroke="black" stroke-width="2" stroke-linecap="round" stroke-linejoin="round"/>
<path d="M12.5 8H12.51" stroke="black" stroke-width="2" stroke-linecap="round" stroke-linejoin="round"/>
<path d="M12.5 12H12.51" stroke="black" stroke-width="2" stroke-linecap="round" stroke-linejoin="round"/>
<path d="M12.5 16H12.51" stroke="black" stroke-width="2" stroke-linecap="round" stroke-linejoin="round"/>
<path d="M16.5 12H16.51" stroke="black" stroke-width="2" stroke-linecap="round" stroke-linejoin="round"/>
<path d="M16.5 16H16.51" stroke="black" stroke-width="2" stroke-linecap="round" stroke-linejoin="round"/>
<path d="M8.5 12H8.51" stroke="black" stroke-width="2" stroke-linecap="round" stroke-linejoin="round"/>
<path d="M8.5 16H8.51" stroke="black" stroke-width="2" stroke-linecap="round" stroke-linejoin="round"/>
<path d="M33.98 21V6.8H37.02V13.54L35.68 12.58H43.76L42.4 13.54V6.8H45.44V21H42.4V14.18L43.76 15.14H35.68L37.02 14.18V21H33.98ZM51.2188 21.24C50.1121 21.24 49.2054 20.9867 48.4988 20.48C47.8054 19.96 47.4588 19.24 47.4588 18.32C47.4588 17.3733 47.7521 16.6467 48.3388 16.14C48.9388 15.62 49.8188 15.24 50.9788 15L54.4388 14.32C54.4388 13.6267 54.2788 13.1067 53.9588 12.76C53.6521 12.4 53.2054 12.22 52.6188 12.22C52.0454 12.22 51.5988 12.3533 51.2788 12.62C50.9588 12.8733 50.7521 13.2533 50.6588 13.76L47.6388 13.62C47.8388 12.4467 48.3654 11.56 49.2188 10.96C50.0854 10.3467 51.2188 10.04 52.6188 10.04C54.2188 10.04 55.4188 10.42 56.2188 11.18C57.0321 11.94 57.4388 13.0533 57.4388 14.52V18.18C57.4388 18.4867 57.4854 18.6933 57.5788 18.8C57.6854 18.8933 57.8388 18.94 58.0388 18.94H58.3388V21C58.2454 21.0267 58.0921 21.0533 57.8788 21.08C57.6788 21.1067 57.4788 21.12 57.2787 21.12C56.8521 21.12 56.4521 21.0467 56.0788 20.9C55.7188 20.7533 55.4254 20.5067 55.1988 20.16C54.9721 19.8 54.8588 19.2933 54.8588 18.64L55.1188 18.84C54.9854 19.32 54.7454 19.74 54.3988 20.1C54.0654 20.46 53.6254 20.74 53.0788 20.94C52.5454 21.14 51.9254 21.24 51.2188 21.24ZM51.9388 19.18C52.4321 19.18 52.8654 19.0867 53.2388 18.9C53.6121 18.7 53.9054 18.4133 54.1188 18.04C54.3321 17.6667 54.4388 17.2267 54.4388 16.72V16.2L51.9987 16.72C51.5188 16.8133 51.1521 16.9733 50.8988 17.2C50.6588 17.4133 50.5388 17.6933 50.5388 18.04C50.5388 18.4 50.6588 18.68 50.8988 18.88C51.1388 19.08 51.4854 19.18 51.9388 19.18ZM59.9137 21V10.28H62.7538L62.8538 13.4L62.6338 13.34C62.8071 12.26 63.1138 11.48 63.5538 11C63.9938 10.52 64.6004 10.28 65.3738 10.28H66.3538V12.76H65.3738C64.8138 12.76 64.3538 12.8333 63.9938 12.98C63.6338 13.1267 63.3604 13.36 63.1738 13.68C63.0004 14 62.9138 14.4333 62.9138 14.98V21H59.9137ZM67.8434 21V10.28H70.5434L70.6434 12.86L70.3634 12.74C70.5101 12.1667 70.7301 11.68 71.0234 11.28C71.3301 10.88 71.6968 10.5733 72.1234 10.36C72.5501 10.1467 73.0168 10.04 73.5234 10.04C74.4168 10.04 75.1368 10.3 75.6834 10.82C76.2434 11.34 76.6034 12.04 76.7634 12.92L76.3834 12.94C76.5034 12.3133 76.7101 11.7867 77.0034 11.36C77.3101 10.92 77.6834 10.5933 78.1234 10.38C78.5634 10.1533 79.0568 10.04 79.6034 10.04C80.3501 10.04 80.9901 10.1933 81.5234 10.5C82.0568 10.8067 82.4701 11.2667 82.7634 11.88C83.0568 12.48 83.2034 13.22 83.2034 14.1V21H80.2034V14.94C80.2034 14.1 80.0768 13.4733 79.8234 13.06C79.5701 12.6333 79.1568 12.42 78.5834 12.42C78.2234 12.42 77.9168 12.52 77.6634 12.72C77.4101 12.92 77.2101 13.2133 77.0634 13.6C76.9301 13.9733 76.8634 14.4333 76.8634 14.98V21H74.1634V14.98C74.1634 14.1533 74.0434 13.52 73.8034 13.08C73.5634 12.64 73.1501 12.42 72.5634 12.42C72.2034 12.42 71.8901 12.52 71.6234 12.72C71.3701 12.92 71.1768 13.2133 71.0434 13.6C70.9101 13.9867 70.8434 14.4467 70.8434 14.98V21H67.8434ZM90.4573 21.24C89.364 21.24 88.4107 21.0133 87.5973 20.56C86.784 20.0933 86.1507 19.44 85.6973 18.6C85.244 17.76 85.0173 16.7733 85.0173 15.64C85.0173 14.5067 85.244 13.5267 85.6973 12.7C86.1507 11.86 86.784 11.2067 87.5973 10.74C88.4107 10.2733 89.364 10.04 90.4573 10.04C91.5507 10.04 92.504 10.2733 93.3173 10.74C94.1307 11.2067 94.764 11.86 95.2173 12.7C95.6707 13.5267 95.8973 14.5067 95.8973 15.64C95.8973 16.7733 95.6707 17.76 95.2173 18.6C94.764 19.44 94.1307 20.0933 93.3173 20.56C92.504 21.0133 91.5507 21.24 90.4573 21.24ZM90.4573 18.94C91.204 18.94 91.784 18.6533 92.1973 18.08C92.6107 17.4933 92.8173 16.68 92.8173 15.64C92.8173 14.6 92.6107 13.7933 92.1973 13.22C91.784 12.6333 91.204 12.34 90.4573 12.34C89.7107 12.34 89.1307 12.6333 88.7173 13.22C88.304 13.7933 88.0973 14.6 88.0973 15.64C88.0973 16.68 88.304 17.4933 88.7173 18.08C89.1307 18.6533 89.7107 18.94 90.4573 18.94ZM97.7653 21V10.28H100.465L100.585 13.42L100.205 13.32C100.312 12.52 100.525 11.88 100.845 11.4C101.179 10.92 101.592 10.5733 102.085 10.36C102.579 10.1467 103.119 10.04 103.705 10.04C104.479 10.04 105.132 10.2067 105.665 10.54C106.212 10.8733 106.625 11.3467 106.905 11.96C107.199 12.56 107.345 13.2733 107.345 14.1V21H104.345V15.1C104.345 14.5267 104.299 14.04 104.205 13.64C104.112 13.24 103.945 12.94 103.705 12.74C103.465 12.5267 103.132 12.42 102.705 12.42C102.079 12.42 101.599 12.6533 101.265 13.12C100.932 13.5733 100.765 14.2333 100.765 15.1V21H97.7653ZM110.227 24V21.76H111.647C111.994 21.76 112.247 21.7067 112.407 21.6C112.581 21.5067 112.714 21.3333 112.807 21.08L113.027 20.46H112.207L108.447 10.28H111.507L113.967 17.66L116.267 10.28H119.327L115.207 22.02C114.967 22.7267 114.621 23.2333 114.167 23.54C113.714 23.8467 113.081 24 112.267 24H110.227Z" fill="black"/>
</svg>
