<svg width="33" height="33" viewBox="0 0 33 33" fill="none" xmlns="http://www.w3.org/2000/svg">
<path d="M24.5 2.91663H8.49999C7.02724 2.91663 5.83333 4.11053 5.83333 5.58329V26.9166C5.83333 28.3894 7.02724 29.5833 8.49999 29.5833H24.5C25.9728 29.5833 27.1667 28.3894 27.1667 26.9166V5.58329C27.1667 4.11053 25.9728 2.91663 24.5 2.91663Z" stroke="#18181B" stroke-width="2.66667" stroke-linecap="round" stroke-linejoin="round"/>
<path d="M12.5 29.5833V24.25H20.5V29.5833" stroke="#18181B" stroke-width="2.66667" stroke-linecap="round" stroke-linejoin="round"/>
<path d="M11.1667 8.25H11.18" stroke="#18181B" stroke-width="2.66667" stroke-linecap="round" stroke-linejoin="round"/>
<path d="M21.8333 8.25H21.8467" stroke="#18181B" stroke-width="2.66667" stroke-linecap="round" stroke-linejoin="round"/>
<path d="M16.5 8.25H16.5133" stroke="#18181B" stroke-width="2.66667" stroke-linecap="round" stroke-linejoin="round"/>
<path d="M16.5 13.5834H16.5133" stroke="#18181B" stroke-width="2.66667" stroke-linecap="round" stroke-linejoin="round"/>
<path d="M16.5 18.9166H16.5133" stroke="#18181B" stroke-width="2.66667" stroke-linecap="round" stroke-linejoin="round"/>
<path d="M21.8333 13.5834H21.8467" stroke="#18181B" stroke-width="2.66667" stroke-linecap="round" stroke-linejoin="round"/>
<path d="M21.8333 18.9166H21.8467" stroke="#18181B" stroke-width="2.66667" stroke-linecap="round" stroke-linejoin="round"/>
<path d="M11.1667 13.5834H11.18" stroke="#18181B" stroke-width="2.66667" stroke-linecap="round" stroke-linejoin="round"/>
<path d="M11.1667 18.9166H11.18" stroke="#18181B" stroke-width="2.66667" stroke-linecap="round" stroke-linejoin="round"/>
</svg>
