<svg width="25" height="30" viewBox="0 0 25 30" fill="none" xmlns="http://www.w3.org/2000/svg">
<path d="M23.1667 16.5833C23.1667 23.2499 18.5 26.5833 12.9533 28.5166C12.6629 28.615 12.3474 28.6103 12.06 28.5033C6.50001 26.5833 1.83334 23.2499 1.83334 16.5833V7.24995C1.83334 6.89633 1.97382 6.55719 2.22387 6.30714C2.47392 6.05709 2.81305 5.91662 3.16668 5.91662C5.83334 5.91662 9.16668 4.31662 11.4867 2.28995C11.7691 2.04861 12.1285 1.91602 12.5 1.91602C12.8715 1.91602 13.2309 2.04861 13.5133 2.28995C15.8467 4.32995 19.1667 5.91662 21.8333 5.91662C22.187 5.91662 22.5261 6.05709 22.7762 6.30714C23.0262 6.55719 23.1667 6.89633 23.1667 7.24995V16.5833Z" stroke="#18181B" stroke-width="2.66667" stroke-linecap="round" stroke-linejoin="round"/>
</svg>
