<svg width="33" height="33" viewBox="0 0 33 33" fill="none" xmlns="http://www.w3.org/2000/svg">
<path d="M21.8333 28.25V25.5833C21.8333 24.1688 21.2714 22.8123 20.2712 21.8121C19.271 20.8119 17.9145 20.25 16.5 20.25H8.5C7.08551 20.25 5.72896 20.8119 4.72876 21.8121C3.72857 22.8123 3.16666 24.1688 3.16666 25.5833V28.25" stroke="#18181B" stroke-width="2.66667" stroke-linecap="round" stroke-linejoin="round"/>
<path d="M12.5 14.9167C15.4455 14.9167 17.8333 12.5289 17.8333 9.58333C17.8333 6.63781 15.4455 4.25 12.5 4.25C9.55449 4.25 7.16667 6.63781 7.16667 9.58333C7.16667 12.5289 9.55449 14.9167 12.5 14.9167Z" stroke="#18181B" stroke-width="2.66667" stroke-linecap="round" stroke-linejoin="round"/>
<path d="M29.8333 28.25V25.5833C29.8324 24.4016 29.4391 23.2537 28.7151 22.3198C27.9912 21.3858 26.9775 20.7188 25.8333 20.4233" stroke="#18181B" stroke-width="2.66667" stroke-linecap="round" stroke-linejoin="round"/>
<path d="M21.8333 4.42334C22.9805 4.71707 23.9974 5.38427 24.7235 6.31975C25.4496 7.25523 25.8438 8.40578 25.8438 9.59001C25.8438 10.7742 25.4496 11.9248 24.7235 12.8603C23.9974 13.7957 22.9805 14.4629 21.8333 14.7567" stroke="#18181B" stroke-width="2.66667" stroke-linecap="round" stroke-linejoin="round"/>
</svg>
